<svg xmlns="http://www.w3.org/2000/svg" version="1.1" xmlns:xlink="http://www.w3.org/1999/xlink" xmlns:svgjs="http://svgjs.com/svgjs" width="1440" height="560" preserveAspectRatio="none" viewBox="0 0 1440 560"><g clip-path="url(&quot;#SvgjsClipPath1000&quot;)" fill="none"><rect width="1440" height="560" x="0" y="0" fill="#0e2a47"></rect><circle r="93.335" cx="-46.14" cy="40.25" stroke="#365aa3" stroke-opacity="0.25" stroke-width="2"></circle><circle r="93.335" cx="367.94" cy="365.76" stroke="#365aa3" stroke-opacity="0.25" stroke-width="2"></circle><circle r="93.335" cx="833.84" cy="787.16" stroke="#365aa3" stroke-opacity="0.25" stroke-width="2"></circle><circle r="139.845" cx="483.41" cy="94.05" stroke="#365aa3" stroke-opacity="0.25" stroke-width="2"></circle><circle r="75.44" cx="772.41" cy="279.29" stroke="#365aa3" stroke-opacity="0.25" stroke-width="2"></circle><circle r="151.07" cx="751.75" cy="542.34" stroke="#365aa3" stroke-opacity="0.25" stroke-width="2"></circle><circle r="104.27" cx="1362.69" cy="452.73" stroke="#365aa3" stroke-opacity="0.25" stroke-width="2"></circle><circle r="88.995" cx="1075.95" cy="379.06" stroke="#365aa3" stroke-opacity="0.25" stroke-width="2"></circle><circle r="82" cx="1125.44" cy="194.76" stroke="#365aa3" stroke-opacity="0.25" stroke-width="2"></circle><circle r="118.295" cx="1099.5" cy="454.77" stroke="#365aa3" stroke-opacity="0.25" stroke-width="2"></circle><circle r="62.72" cx="1243.5" cy="409.24" stroke="#365aa3" stroke-opacity="0.25" stroke-width="2"></circle><circle r="134.81" cx="690.3" cy="108.74" stroke="#365aa3" stroke-opacity="0.25" stroke-width="2"></circle><circle r="142.785" cx="1222.36" cy="345.29" stroke="#365aa3" stroke-opacity="0.25" stroke-width="2"></circle><circle r="131.825" cx="88.49" cy="392.74" stroke="#365aa3" stroke-opacity="0.25" stroke-width="2"></circle><circle r="181.895" cx="1085.76" cy="254.58" stroke="#365aa3" stroke-opacity="0.25" stroke-width="2"></circle><circle r="70.72" cx="1421.7" cy="147.39" stroke="#365aa3" stroke-opacity="0.25" stroke-width="2"></circle><circle r="150.535" cx="210.87" cy="508.3" stroke="#365aa3" stroke-opacity="0.25" stroke-width="2"></circle><circle r="175.845" cx="12.98" cy="541.88" stroke="#365aa3" stroke-opacity="0.25" stroke-width="2"></circle><circle r="155.37" cx="560.47" cy="206.12" stroke="#365aa3" stroke-opacity="0.25" stroke-width="2"></circle><circle r="50.455" cx="96" cy="552.16" stroke="#365aa3" stroke-opacity="0.25" stroke-width="2"></circle><circle r="53.07" cx="698.69" cy="134.83" stroke="#365aa3" stroke-opacity="0.25" stroke-width="2"></circle><circle r="92.625" cx="752.25" cy="128.49" stroke="#365aa3" stroke-opacity="0.25" stroke-width="2"></circle><circle r="112.285" cx="1287.13" cy="244.09" stroke="#365aa3" stroke-opacity="0.25" stroke-width="2"></circle><circle r="82.94" cx="670.47" cy="102.78" stroke="#365aa3" stroke-opacity="0.25" stroke-width="2"></circle><circle r="113.81" cx="1159.02" cy="299.66" stroke="#365aa3" stroke-opacity="0.25" stroke-width="2"></circle><circle r="68.72" cx="212.54" cy="262.45" stroke="#365aa3" stroke-opacity="0.25" stroke-width="2"></circle><circle r="140.64" cx="855.68" cy="1.46" stroke="#365aa3" stroke-opacity="0.25" stroke-width="2"></circle><circle r="127.4" cx="1083.94" cy="86.87" stroke="#365aa3" stroke-opacity="0.25" stroke-width="2"></circle><circle r="102.965" cx="1368.18" cy="464.62" stroke="#365aa3" stroke-opacity="0.25" stroke-width="2"></circle><circle r="95.065" cx="1003.88" cy="253.34" stroke="#365aa3" stroke-opacity="0.25" stroke-width="2"></circle><circle r="55.845" cx="654.5" cy="393.45" stroke="#365aa3" stroke-opacity="0.25" stroke-width="2"></circle><circle r="162.72" cx="283.53" cy="535.22" stroke="#365aa3" stroke-opacity="0.25" stroke-width="2"></circle><circle r="176.47" cx="389.12" cy="159.2" stroke="#365aa3" stroke-opacity="0.25" stroke-width="2"></circle><circle r="68.945" cx="643.57" cy="102.14" stroke="#365aa3" stroke-opacity="0.25" stroke-width="2"></circle><circle r="49.665" cx="127.8" cy="320.6" stroke="#365aa3" stroke-opacity="0.25" stroke-width="2"></circle><circle r="175.78" cx="701.37" cy="14.48" stroke="#365aa3" stroke-opacity="0.25" stroke-width="2"></circle><circle r="119.245" cx="1016.21" cy="160.15" stroke="#365aa3" stroke-opacity="0.25" stroke-width="2"></circle><circle r="157.91" cx="653.38" cy="183.15" stroke="#365aa3" stroke-opacity="0.25" stroke-width="2"></circle><circle r="155.625" cx="183.25" cy="212.72" stroke="#365aa3" stroke-opacity="0.25" stroke-width="2"></circle><circle r="85.62" cx="1230.41" cy="23.31" stroke="#365aa3" stroke-opacity="0.25" stroke-width="2"></circle></g><defs><clipPath id="SvgjsClipPath1000"><rect width="1440" height="560" x="0" y="0"></rect></clipPath></defs></svg>