<svg width="1512" height="982" viewBox="0 0 1512 982" fill="none" xmlns="http://www.w3.org/2000/svg">
<g clip-path="url(#clip0_32_2)">
<rect width="1512" height="982" fill="#EAF4FF"/>
<circle cx="69.5" cy="91.5" r="297.5" fill="#DDEDFF"/>
<circle cx="1338" cy="552" r="238" fill="#DDEDFF"/>
<path d="M1314.27 62.3821C1309.15 71.5599 1296.28 74.1346 1285.52 68.1328C1274.77 62.1309 1291.91 56.6921 1297.03 47.5142C1302.15 38.3364 1293.31 28.8951 1304.07 34.8969C1314.82 40.8987 1319.39 53.2042 1314.27 62.3821Z" fill="#FF4B4B"/>
<path d="M480.53 752.153C475.409 761.33 462.538 763.905 451.781 757.903C441.024 751.902 458.164 746.463 463.285 737.285C468.406 728.107 459.568 718.666 470.325 724.667C481.082 730.669 485.651 742.975 480.53 752.153Z" fill="#FF4B4B"/>
<path d="M119.919 493.461C116.007 496.792 98.5369 506.096 95.1438 502.112C91.7507 498.127 103.72 482.362 107.631 479.031C111.543 475.7 117.465 476.23 120.858 480.215C124.251 484.2 123.831 490.13 119.919 493.461Z" fill="#1A5AFF"/>
<path d="M1351.05 824.641C1352.93 829.424 1356.04 848.97 1351.17 850.882C1346.3 852.795 1335.29 836.349 1333.41 831.567C1331.53 826.784 1333.96 821.357 1338.83 819.444C1343.7 817.532 1349.17 819.858 1351.05 824.641Z" fill="#0DE83D"/>
<path d="M763.548 85.7254C760.046 89.485 743.764 100.74 739.934 97.1727C736.104 93.6055 746.177 76.567 749.679 72.8074C753.181 69.0478 759.125 68.8918 762.954 72.459C766.784 76.0262 767.049 81.9657 763.548 85.7254Z" fill="#FFAF36"/>
<ellipse cx="724.5" cy="785.5" rx="120.5" ry="123.5" fill="#DDEDFF"/>
</g>
<defs>
<clipPath id="clip0_32_2">
<rect width="1512" height="982" fill="white"/>
</clipPath>
</defs>
</svg>
